# xmcd
#
# Track frame offsets: 
#        150
#        15668
#        28171
#        41803
#        58651
#        73338
#        96631
#        112125
#        125301
#        140488
#        159009
#
# Disc length: 2306 seconds
#
# Revision: 0
# Processed by: cddbd v1.5.2PL0 Copyright (c) Steve Scherf et al.
# Submitted via: ExactAudioCopy v0.99pb4
#
DISCID=a009000b
DTITLE=Billy Ryan - Ready for the Ride
DYEAR=2009
DGENRE=Country
TTITLE0=Simpleville 
TTITLE1=Ready for the Ride
TTITLE2=That's When I Believed
TTITLE3=Let Me See Your Hands
TTITLE4=Different Kind of Crown 
TTITLE5=That's Why I Run 
TTITLE6=While I Still Can
TTITLE7=Big City 
TTITLE8=You Never Know 
TTITLE9=When Daddy Drank 
TTITLE10=Going Through Hell 
EXTD=
EXTT0=
EXTT1=
EXTT2=
EXTT3=
EXTT4=
EXTT5=
EXTT6=
EXTT7=
EXTT8=
EXTT9=
EXTT10=
PLAYORDER=
